<mxfile host="app.diagrams.net" agent="Mozilla/5.0 (Windows NT 10.0; Win64; x64) AppleWebKit/537.36 (KHTML, like Gecko) Chrome/135.0.0.0 Safari/537.36" version="26.2.12">
  <diagram id="C5RBs43oDa-KdzZeNtuy" name="Page-1">
    <mxGraphModel dx="1228" dy="1840" grid="1" gridSize="10" guides="1" tooltips="1" connect="1" arrows="1" fold="1" page="1" pageScale="1" pageWidth="827" pageHeight="1169" math="0" shadow="0">
      <root>
        <mxCell id="WIyWlLk6GJQsqaUBKTNV-0" />
        <mxCell id="WIyWlLk6GJQsqaUBKTNV-1" parent="WIyWlLk6GJQsqaUBKTNV-0" />
        <mxCell id="WIyWlLk6GJQsqaUBKTNV-3" value="Program Start" style="rounded=1;whiteSpace=wrap;html=1;fontSize=12;glass=0;strokeWidth=1;shadow=0;" parent="WIyWlLk6GJQsqaUBKTNV-1" vertex="1">
          <mxGeometry x="320" y="-880" width="180" height="40" as="geometry" />
        </mxCell>
        <mxCell id="RO9ODpS9-WWAnATWXnm_-9" style="edgeStyle=orthogonalEdgeStyle;rounded=0;orthogonalLoop=1;jettySize=auto;html=1;exitX=0.5;exitY=1;exitDx=0;exitDy=0;entryX=0.5;entryY=0;entryDx=0;entryDy=0;" parent="WIyWlLk6GJQsqaUBKTNV-1" source="WIyWlLk6GJQsqaUBKTNV-7" target="WIyWlLk6GJQsqaUBKTNV-12" edge="1">
          <mxGeometry relative="1" as="geometry" />
        </mxCell>
        <mxCell id="WIyWlLk6GJQsqaUBKTNV-7" value="from input_handler import select_difficulty," style="rounded=1;whiteSpace=wrap;html=1;fontSize=12;glass=0;strokeWidth=1;shadow=0;" parent="WIyWlLk6GJQsqaUBKTNV-1" vertex="1">
          <mxGeometry x="320" y="-820" width="180" height="40" as="geometry" />
        </mxCell>
        <mxCell id="BJBQlZ8-P0HWBEz6JG5q-10" style="edgeStyle=orthogonalEdgeStyle;rounded=0;orthogonalLoop=1;jettySize=auto;html=1;exitX=0.5;exitY=1;exitDx=0;exitDy=0;entryX=0.5;entryY=0;entryDx=0;entryDy=0;" edge="1" parent="WIyWlLk6GJQsqaUBKTNV-1" source="WIyWlLk6GJQsqaUBKTNV-12" target="BJBQlZ8-P0HWBEz6JG5q-8">
          <mxGeometry relative="1" as="geometry" />
        </mxCell>
        <mxCell id="WIyWlLk6GJQsqaUBKTNV-12" value="&lt;p&gt;import random&lt;/p&gt;&lt;p&gt;from repository import word_list&lt;/p&gt;&lt;p&gt;from word_selector import choose_random_word&lt;/p&gt;" style="rounded=1;whiteSpace=wrap;html=1;fontSize=12;glass=0;strokeWidth=1;shadow=0;" parent="WIyWlLk6GJQsqaUBKTNV-1" vertex="1">
          <mxGeometry x="250" y="-760" width="320" height="70" as="geometry" />
        </mxCell>
        <mxCell id="RO9ODpS9-WWAnATWXnm_-6" value="" style="endArrow=classic;html=1;rounded=0;exitX=0.5;exitY=1;exitDx=0;exitDy=0;entryX=0.5;entryY=0;entryDx=0;entryDy=0;" parent="WIyWlLk6GJQsqaUBKTNV-1" source="WIyWlLk6GJQsqaUBKTNV-3" target="WIyWlLk6GJQsqaUBKTNV-7" edge="1">
          <mxGeometry width="50" height="50" relative="1" as="geometry">
            <mxPoint x="384" y="-790" as="sourcePoint" />
            <mxPoint x="434" y="-840" as="targetPoint" />
          </mxGeometry>
        </mxCell>
        <mxCell id="RO9ODpS9-WWAnATWXnm_-39" style="edgeStyle=orthogonalEdgeStyle;rounded=0;orthogonalLoop=1;jettySize=auto;html=1;exitX=0.5;exitY=1;exitDx=0;exitDy=0;" parent="WIyWlLk6GJQsqaUBKTNV-1" source="RO9ODpS9-WWAnATWXnm_-12" target="RO9ODpS9-WWAnATWXnm_-37" edge="1">
          <mxGeometry relative="1" as="geometry" />
        </mxCell>
        <mxCell id="RO9ODpS9-WWAnATWXnm_-12" value="from input_handler import get_user_input" style="rounded=1;whiteSpace=wrap;html=1;" parent="WIyWlLk6GJQsqaUBKTNV-1" vertex="1">
          <mxGeometry x="320" y="-590" width="180" height="60" as="geometry" />
        </mxCell>
        <mxCell id="BJBQlZ8-P0HWBEz6JG5q-18" style="edgeStyle=orthogonalEdgeStyle;rounded=0;orthogonalLoop=1;jettySize=auto;html=1;entryX=0.5;entryY=0;entryDx=0;entryDy=0;" edge="1" parent="WIyWlLk6GJQsqaUBKTNV-1" source="RO9ODpS9-WWAnATWXnm_-15" target="RO9ODpS9-WWAnATWXnm_-59">
          <mxGeometry relative="1" as="geometry" />
        </mxCell>
        <mxCell id="BJBQlZ8-P0HWBEz6JG5q-28" style="edgeStyle=orthogonalEdgeStyle;rounded=0;orthogonalLoop=1;jettySize=auto;html=1;endArrow=none;startFill=0;" edge="1" parent="WIyWlLk6GJQsqaUBKTNV-1" source="RO9ODpS9-WWAnATWXnm_-15">
          <mxGeometry relative="1" as="geometry">
            <mxPoint x="120" y="-560" as="targetPoint" />
          </mxGeometry>
        </mxCell>
        <mxCell id="RO9ODpS9-WWAnATWXnm_-15" value="from output_handler import display_current_word, display_used_letters, display_remaining_attempts, draw_hangman" style="rounded=1;whiteSpace=wrap;html=1;" parent="WIyWlLk6GJQsqaUBKTNV-1" vertex="1">
          <mxGeometry x="180" y="-300" width="170" height="90" as="geometry" />
        </mxCell>
        <mxCell id="BJBQlZ8-P0HWBEz6JG5q-19" style="edgeStyle=orthogonalEdgeStyle;rounded=0;orthogonalLoop=1;jettySize=auto;html=1;" edge="1" parent="WIyWlLk6GJQsqaUBKTNV-1" source="RO9ODpS9-WWAnATWXnm_-24" target="RO9ODpS9-WWAnATWXnm_-60">
          <mxGeometry relative="1" as="geometry" />
        </mxCell>
        <mxCell id="RO9ODpS9-WWAnATWXnm_-24" value="from output_handler import display_current_word, display_used_letters, display_remaining_attempts, draw_hangman" style="rounded=1;whiteSpace=wrap;html=1;" parent="WIyWlLk6GJQsqaUBKTNV-1" vertex="1">
          <mxGeometry x="455" y="-300" width="165" height="90" as="geometry" />
        </mxCell>
        <mxCell id="BJBQlZ8-P0HWBEz6JG5q-14" style="edgeStyle=orthogonalEdgeStyle;rounded=0;orthogonalLoop=1;jettySize=auto;html=1;" edge="1" parent="WIyWlLk6GJQsqaUBKTNV-1" source="RO9ODpS9-WWAnATWXnm_-37" target="BJBQlZ8-P0HWBEz6JG5q-12">
          <mxGeometry relative="1" as="geometry" />
        </mxCell>
        <mxCell id="BJBQlZ8-P0HWBEz6JG5q-15" style="edgeStyle=orthogonalEdgeStyle;rounded=0;orthogonalLoop=1;jettySize=auto;html=1;" edge="1" parent="WIyWlLk6GJQsqaUBKTNV-1" source="RO9ODpS9-WWAnATWXnm_-37" target="BJBQlZ8-P0HWBEz6JG5q-13">
          <mxGeometry relative="1" as="geometry" />
        </mxCell>
        <mxCell id="RO9ODpS9-WWAnATWXnm_-37" value="from logic import check_letter_in_word" style="rhombus;whiteSpace=wrap;html=1;" parent="WIyWlLk6GJQsqaUBKTNV-1" vertex="1">
          <mxGeometry x="280" y="-490" width="260" height="80" as="geometry" />
        </mxCell>
        <mxCell id="BJBQlZ8-P0HWBEz6JG5q-25" style="edgeStyle=orthogonalEdgeStyle;rounded=0;orthogonalLoop=1;jettySize=auto;html=1;entryX=0.5;entryY=0;entryDx=0;entryDy=0;" edge="1" parent="WIyWlLk6GJQsqaUBKTNV-1" source="RO9ODpS9-WWAnATWXnm_-59" target="RO9ODpS9-WWAnATWXnm_-67">
          <mxGeometry relative="1" as="geometry" />
        </mxCell>
        <mxCell id="RO9ODpS9-WWAnATWXnm_-59" value="from output_handler import&lt;div&gt;display_game_result&lt;/div&gt;" style="rounded=1;whiteSpace=wrap;html=1;" parent="WIyWlLk6GJQsqaUBKTNV-1" vertex="1">
          <mxGeometry x="185" y="-170" width="160" height="60" as="geometry" />
        </mxCell>
        <mxCell id="BJBQlZ8-P0HWBEz6JG5q-24" style="edgeStyle=orthogonalEdgeStyle;rounded=0;orthogonalLoop=1;jettySize=auto;html=1;" edge="1" parent="WIyWlLk6GJQsqaUBKTNV-1" source="RO9ODpS9-WWAnATWXnm_-60" target="RO9ODpS9-WWAnATWXnm_-67">
          <mxGeometry relative="1" as="geometry" />
        </mxCell>
        <mxCell id="RO9ODpS9-WWAnATWXnm_-60" value="from output_handler import&lt;div&gt;display_game_result&lt;/div&gt;" style="rounded=1;whiteSpace=wrap;html=1;" parent="WIyWlLk6GJQsqaUBKTNV-1" vertex="1">
          <mxGeometry x="462.5" y="-170" width="150" height="60" as="geometry" />
        </mxCell>
        <mxCell id="BJBQlZ8-P0HWBEz6JG5q-27" style="edgeStyle=orthogonalEdgeStyle;rounded=0;orthogonalLoop=1;jettySize=auto;html=1;entryX=0.5;entryY=0;entryDx=0;entryDy=0;" edge="1" parent="WIyWlLk6GJQsqaUBKTNV-1" source="RO9ODpS9-WWAnATWXnm_-67" target="8IlIwi8LDBFW8jcf1XwE-0">
          <mxGeometry relative="1" as="geometry" />
        </mxCell>
        <mxCell id="BJBQlZ8-P0HWBEz6JG5q-33" style="edgeStyle=orthogonalEdgeStyle;rounded=0;orthogonalLoop=1;jettySize=auto;html=1;endArrow=none;startFill=0;" edge="1" parent="WIyWlLk6GJQsqaUBKTNV-1" source="RO9ODpS9-WWAnATWXnm_-67">
          <mxGeometry relative="1" as="geometry">
            <mxPoint x="70" y="-799.2001953125" as="targetPoint" />
          </mxGeometry>
        </mxCell>
        <mxCell id="RO9ODpS9-WWAnATWXnm_-67" value="from input_handler import&lt;div&gt;ask_restart&lt;/div&gt;" style="rounded=1;whiteSpace=wrap;html=1;" parent="WIyWlLk6GJQsqaUBKTNV-1" vertex="1">
          <mxGeometry x="330" y="-50" width="140" height="60" as="geometry" />
        </mxCell>
        <mxCell id="8IlIwi8LDBFW8jcf1XwE-0" value="Program End" style="rounded=1;whiteSpace=wrap;html=1;" parent="WIyWlLk6GJQsqaUBKTNV-1" vertex="1">
          <mxGeometry x="330" y="49" width="140" height="50" as="geometry" />
        </mxCell>
        <mxCell id="BJBQlZ8-P0HWBEz6JG5q-1" style="edgeStyle=orthogonalEdgeStyle;rounded=0;orthogonalLoop=1;jettySize=auto;html=1;entryX=0.5;entryY=0;entryDx=0;entryDy=0;" edge="1" parent="WIyWlLk6GJQsqaUBKTNV-1" source="BJBQlZ8-P0HWBEz6JG5q-0" target="WIyWlLk6GJQsqaUBKTNV-3">
          <mxGeometry relative="1" as="geometry" />
        </mxCell>
        <mxCell id="BJBQlZ8-P0HWBEz6JG5q-0" value="&lt;p&gt;import random&lt;/p&gt;&lt;p&gt;from repository import word_list, hangman_pics&lt;/p&gt;&lt;p&gt;from input_handler import select_difficulty, ask_restart,&amp;nbsp;&lt;span style=&quot;background-color: transparent; color: light-dark(rgb(0, 0, 0), rgb(255, 255, 255));&quot;&gt;get_user_input&lt;/span&gt;&lt;/p&gt;&lt;p&gt;from output_handler import display_word_length,&amp;nbsp;&amp;nbsp;display_current_word, display_used_letters, display_remaining_attempts, draw_hangman, display_game_result&lt;br&gt;&lt;/p&gt;&lt;p&gt;from word_selector import choose_random_word&lt;/p&gt;&lt;p&gt;from logic import check_letter_in_word&lt;/p&gt;&lt;div&gt;&lt;br&gt;&lt;/div&gt;" style="rounded=1;whiteSpace=wrap;html=1;" vertex="1" parent="WIyWlLk6GJQsqaUBKTNV-1">
          <mxGeometry x="242.5" y="-1130" width="335" height="220" as="geometry" />
        </mxCell>
        <mxCell id="BJBQlZ8-P0HWBEz6JG5q-9" style="edgeStyle=orthogonalEdgeStyle;rounded=0;orthogonalLoop=1;jettySize=auto;html=1;exitX=0.5;exitY=1;exitDx=0;exitDy=0;entryX=0.5;entryY=0;entryDx=0;entryDy=0;" edge="1" parent="WIyWlLk6GJQsqaUBKTNV-1" source="BJBQlZ8-P0HWBEz6JG5q-8" target="RO9ODpS9-WWAnATWXnm_-12">
          <mxGeometry relative="1" as="geometry" />
        </mxCell>
        <mxCell id="BJBQlZ8-P0HWBEz6JG5q-8" value="from output_handler import display_word_length" style="rounded=1;whiteSpace=wrap;html=1;" vertex="1" parent="WIyWlLk6GJQsqaUBKTNV-1">
          <mxGeometry x="320" y="-670" width="180" height="60" as="geometry" />
        </mxCell>
        <mxCell id="BJBQlZ8-P0HWBEz6JG5q-16" style="edgeStyle=orthogonalEdgeStyle;rounded=0;orthogonalLoop=1;jettySize=auto;html=1;entryX=0.5;entryY=0;entryDx=0;entryDy=0;" edge="1" parent="WIyWlLk6GJQsqaUBKTNV-1" source="BJBQlZ8-P0HWBEz6JG5q-12" target="RO9ODpS9-WWAnATWXnm_-15">
          <mxGeometry relative="1" as="geometry" />
        </mxCell>
        <mxCell id="BJBQlZ8-P0HWBEz6JG5q-12" value="print(&#39;정답입니다&#39;)" style="rounded=1;whiteSpace=wrap;html=1;" vertex="1" parent="WIyWlLk6GJQsqaUBKTNV-1">
          <mxGeometry x="185" y="-370" width="160" height="45" as="geometry" />
        </mxCell>
        <mxCell id="BJBQlZ8-P0HWBEz6JG5q-13" value="print(&#39;오답&#39;)" style="rounded=1;whiteSpace=wrap;html=1;" vertex="1" parent="WIyWlLk6GJQsqaUBKTNV-1">
          <mxGeometry x="452.5" y="-370" width="160" height="45" as="geometry" />
        </mxCell>
        <mxCell id="BJBQlZ8-P0HWBEz6JG5q-17" style="edgeStyle=orthogonalEdgeStyle;rounded=0;orthogonalLoop=1;jettySize=auto;html=1;entryX=0.467;entryY=0.027;entryDx=0;entryDy=0;entryPerimeter=0;" edge="1" parent="WIyWlLk6GJQsqaUBKTNV-1" source="BJBQlZ8-P0HWBEz6JG5q-13" target="RO9ODpS9-WWAnATWXnm_-24">
          <mxGeometry relative="1" as="geometry" />
        </mxCell>
        <mxCell id="BJBQlZ8-P0HWBEz6JG5q-29" value="" style="endArrow=classic;html=1;rounded=0;entryX=0;entryY=0.5;entryDx=0;entryDy=0;" edge="1" parent="WIyWlLk6GJQsqaUBKTNV-1" target="RO9ODpS9-WWAnATWXnm_-12">
          <mxGeometry width="50" height="50" relative="1" as="geometry">
            <mxPoint x="120" y="-560" as="sourcePoint" />
            <mxPoint x="170" y="-610" as="targetPoint" />
          </mxGeometry>
        </mxCell>
        <mxCell id="BJBQlZ8-P0HWBEz6JG5q-31" style="edgeStyle=orthogonalEdgeStyle;rounded=0;orthogonalLoop=1;jettySize=auto;html=1;endArrow=none;startFill=0;" edge="1" parent="WIyWlLk6GJQsqaUBKTNV-1">
          <mxGeometry relative="1" as="geometry">
            <mxPoint x="680" y="-560" as="targetPoint" />
            <mxPoint x="620" y="-245" as="sourcePoint" />
          </mxGeometry>
        </mxCell>
        <mxCell id="BJBQlZ8-P0HWBEz6JG5q-32" value="" style="endArrow=classic;html=1;rounded=0;entryX=0;entryY=0.5;entryDx=0;entryDy=0;" edge="1" parent="WIyWlLk6GJQsqaUBKTNV-1">
          <mxGeometry width="50" height="50" relative="1" as="geometry">
            <mxPoint x="680" y="-560" as="sourcePoint" />
            <mxPoint x="500" y="-560.5" as="targetPoint" />
          </mxGeometry>
        </mxCell>
        <mxCell id="BJBQlZ8-P0HWBEz6JG5q-34" value="" style="endArrow=classic;html=1;rounded=0;entryX=0;entryY=0.5;entryDx=0;entryDy=0;" edge="1" parent="WIyWlLk6GJQsqaUBKTNV-1" target="WIyWlLk6GJQsqaUBKTNV-7">
          <mxGeometry width="50" height="50" relative="1" as="geometry">
            <mxPoint x="70" y="-800" as="sourcePoint" />
            <mxPoint x="120" y="-850" as="targetPoint" />
          </mxGeometry>
        </mxCell>
        <mxCell id="BJBQlZ8-P0HWBEz6JG5q-35" value="Yes" style="text;html=1;align=center;verticalAlign=middle;whiteSpace=wrap;rounded=0;" vertex="1" parent="WIyWlLk6GJQsqaUBKTNV-1">
          <mxGeometry x="220" y="-50" width="60" height="30" as="geometry" />
        </mxCell>
        <mxCell id="BJBQlZ8-P0HWBEz6JG5q-36" value="No" style="text;html=1;align=center;verticalAlign=middle;whiteSpace=wrap;rounded=0;" vertex="1" parent="WIyWlLk6GJQsqaUBKTNV-1">
          <mxGeometry x="392.5" y="10" width="60" height="30" as="geometry" />
        </mxCell>
        <mxCell id="BJBQlZ8-P0HWBEz6JG5q-38" value="if guess in word" style="text;html=1;align=center;verticalAlign=middle;whiteSpace=wrap;rounded=0;" vertex="1" parent="WIyWlLk6GJQsqaUBKTNV-1">
          <mxGeometry x="260" y="-420" width="100" height="30" as="geometry" />
        </mxCell>
        <mxCell id="BJBQlZ8-P0HWBEz6JG5q-39" value="if guess not in word" style="text;html=1;align=center;verticalAlign=middle;whiteSpace=wrap;rounded=0;" vertex="1" parent="WIyWlLk6GJQsqaUBKTNV-1">
          <mxGeometry x="430" y="-420" width="130" height="30" as="geometry" />
        </mxCell>
        <mxCell id="BJBQlZ8-P0HWBEz6JG5q-40" value="all letters guessed" style="text;html=1;align=center;verticalAlign=middle;whiteSpace=wrap;rounded=0;" vertex="1" parent="WIyWlLk6GJQsqaUBKTNV-1">
          <mxGeometry x="150" y="-210" width="120" height="30" as="geometry" />
        </mxCell>
        <mxCell id="BJBQlZ8-P0HWBEz6JG5q-41" value="no lives left" style="text;html=1;align=center;verticalAlign=middle;whiteSpace=wrap;rounded=0;" vertex="1" parent="WIyWlLk6GJQsqaUBKTNV-1">
          <mxGeometry x="532.5" y="-210" width="80" height="30" as="geometry" />
        </mxCell>
      </root>
    </mxGraphModel>
  </diagram>
</mxfile>
